<svg width="139" height="139" viewBox="0 0 139 139" fill="none" xmlns="http://www.w3.org/2000/svg">
<circle cx="69.5" cy="69.5" r="69.5" fill="#232F3D"/>
<path fill-rule="evenodd" clip-rule="evenodd" d="M67 37C61.4772 37 57 41.4772 57 47V70C57 75.5228 61.4772 80 67 80H68V88L75.1111 80H102C107.523 80 112 75.5228 112 70V47C112 41.4772 107.523 37 102 37H67ZM105 44H64V73H105V44Z" fill="#5188C0"/>
<path d="M59.2909 82.1119V90.8236H31.7091V69.2157H54V64H33.7273C30.0119 64 27 67.3359 27 71.451V88.5882C27 92.7033 30.0119 96.0392 33.7273 96.0392H51.8162L56.6 102V96.0392H57.2727C60.9881 96.0392 64 92.7033 64 88.5882V83.9231L59.2909 82.1119Z" fill="#5188C0"/>
<path d="M95.6909 82V92.2242H76.3091V87.2797L73 88.3077V90.9555C73 93.2911 75.1165 95.1844 77.7273 95.1844H78.2V98.5676L81.5616 95.1844H94.2727C96.8835 95.1844 99 93.2911 99 90.9555V82H95.6909Z" fill="#5188C0"/>
</svg>
